<?xml version="1.0" encoding="utf-8"?>
<!-- Generator: Adobe Illustrator 21.1.0, SVG Export Plug-In . SVG Version: 6.00 Build 0)  -->
<svg version="1.1" id="Layer_1" xmlns="http://www.w3.org/2000/svg" xmlns:xlink="http://www.w3.org/1999/xlink" x="0px" y="0px"
	 viewBox="0 0 650.9 650.9" style="enable-background:new 0 0 650.9 650.9;" xml:space="preserve">
<style type="text/css">
	.st0{fill:#53BAD3;}
	.st1{fill:none;}
</style>
<path class="st0" d="M454.8,266.7l-98.5-56.8c-0.6-0.3-1.2-0.4-1.8-0.4c-0.6,0-1.2,0.1-1.8,0.4l-98.1,56.7c-0.1,0.1-0.3,0.1-0.3,0.1
	h-0.1l-0.6,0.1c-1,0.8-2.1,2-2.1,3.1v114.1c0,1.2,0.9,2.5,2.1,3.2l99.1,57.1c0.6,0.3,1.2,0.5,1.8,0.5c0.6,0,1.8-0.1,2.4-0.5
	l99.3-57.1c1.2-0.6,2.8-2,2.8-3.2V270c0-1.3-1.8-2.4-2.8-3.1L454.8,266.7z M354.5,217.2l32.2,18.6l-91.2,52.7l-32.2-18.6
	L354.5,217.2z M352.8,435.2l-91.8-53V275.9l28.8,19.1v36.9l5.1-2.1l8.9,9h7.5l2.9,4.2v-35.7l38.7,21.8V435.2z M354.5,322.7
	l-39.3-22.8l91.2-52.7l39.3,22.8L354.5,322.7z M449.4,382.1L357.6,435V328.8l91.8-53L449.4,382.1L449.4,382.1z"/>
<path class="st0" d="M476.9,451.4c-68,67.9-178.6,67.9-246.6,0s-67.9-178.6,0-246.6c54.9-54.9,138.2-66.3,205-30.6l-16.8,27.6
	c-0.3,0.4-0.3,1.1,0,1.5c0.3,0.3,0.8,0.6,1.2,0.6h0.1l67.2-8.7c0.5,0,0.9-0.3,1-0.6c0.3-0.3,0.3-0.8,0.2-1.2l-24.3-62
	c-0.2-0.4-0.6-0.9-1.2-0.9c-0.5-0.2-1,0.1-1.3,0.6l-16.8,27.6c-73.9-39.9-166.4-27.3-227.1,33.4c-75,75-75,196.9,0,272
	c37.5,37.5,86.7,56.2,135.9,56.2c49.3,0,98.5-18.7,136.2-56.4L476.9,451.4z"/>
<rect class="st1" width="650.9" height="650.9"/>
</svg>
