<svg id="Layer_1" data-name="Layer 1" xmlns="http://www.w3.org/2000/svg" viewBox="0 0 43.05 43.08"><defs><style>.cls-1{fill:#fff;}</style></defs><title>xlink</title><path class="cls-1" d="M48.38,13.5H39.92l-.25,0a1.49,1.49,0,0,1-.53-.24,1.5,1.5,0,0,1,.62-2.7l.17,0Q46,10.33,52,10.5h.13l.22,0,.09,0h.11l.21.11a1.5,1.5,0,0,1,.34.29l.13.17h0a1.43,1.43,0,0,1,.2.52v.2c.11,4,0,8.06,0,12.08a1.56,1.56,0,0,1,0,.17,1.51,1.51,0,0,1-.14.48,1.49,1.49,0,0,1-.7.7,1.51,1.51,0,0,1-1.52-.13,1.5,1.5,0,0,1-.61-1,1.75,1.75,0,0,1,0-.25V15.62L31.06,35.06l-.17.15a1.52,1.52,0,0,1-.4.21,1.49,1.49,0,0,1-.55.08,1.5,1.5,0,0,1-1.39-1.11,1.48,1.48,0,0,1,0-.44,1.5,1.5,0,0,1,.23-.74,1.76,1.76,0,0,1,.21-.26Z" transform="translate(-10.5 -10.42)"/><path class="cls-1" d="M30.14,14.51a1.5,1.5,0,0,1,1.22.87,1.5,1.5,0,0,1-1.22,2.12h-3.3c-1.7,0-3.4,0-5.1.12-.94.05-1.89.13-2.82.27l-.76.14-.51.12a5.23,5.23,0,0,0-2.19,1,3.28,3.28,0,0,0-.32.33,4.27,4.27,0,0,0-.7,1.21A8.92,8.92,0,0,0,14,22.36a21.16,21.16,0,0,0-.3,2.36c-.11,1.34-.14,2.69-.16,4s0,2.41,0,3.62,0,2.17,0,3.26c0,1.53,0,3.05,0,4.58,0,1.34.09,2.68.24,4,0,.35.09.7.15,1a10.12,10.12,0,0,0,.48,1.88,4.39,4.39,0,0,0,.8,1.38,5.08,5.08,0,0,0,2.73,1.4l.63.13.8.12a39.82,39.82,0,0,0,4.13.28c1.63,0,3.25,0,4.88.05h3.25c1.31,0,2.62,0,3.94,0s2.63-.07,3.94-.18A19.54,19.54,0,0,0,41.8,50a7.63,7.63,0,0,0,1.87-.61,3.83,3.83,0,0,0,1-.66,5.14,5.14,0,0,0,1.27-2.54c0-.17.08-.35.12-.53s.09-.52.13-.78.1-.73.13-1.1c.11-1.18.16-2.36.19-3.54.05-2.06,0-4.13,0-6.2v-.14s0-.1,0-.14a1.51,1.51,0,0,1,.49-.85,1.5,1.5,0,0,1,1.61-.23A1.5,1.5,0,0,1,49.5,34c0,1.05,0,2.11,0,3.16s0,2.07,0,3.11c0,.71,0,1.42-.08,2.12,0,.55-.07,1.09-.12,1.63q0,.5-.12,1c0,.24-.07.47-.11.71A10.08,10.08,0,0,1,47.47,50a6.37,6.37,0,0,1-1.21,1.28,7.11,7.11,0,0,1-1.34.84,12,12,0,0,1-3.42,1c-.85.13-1.7.21-2.55.27s-1.79.09-2.68.12c-1.29,0-2.58,0-3.86,0h-4c-1.55,0-3.09,0-4.64,0s-2.85-.09-4.26-.25l-1-.13a10.34,10.34,0,0,1-4.44-1.59,6.52,6.52,0,0,1-.54-.43,6.41,6.41,0,0,1-.68-.7,6.54,6.54,0,0,1-.41-.55,10.29,10.29,0,0,1-1.45-4c-.05-.32-.1-.64-.14-1s-.08-.68-.11-1c-.05-.55-.09-1.11-.11-1.66,0-.83-.07-1.66-.08-2.49,0-1.07,0-2.15,0-3.22q0-2,0-4c0-1.44,0-2.88,0-4.33,0-.82,0-1.63.09-2.45,0-.55.07-1.09.12-1.64s.09-.83.15-1.24q0-.35.11-.7a9.82,9.82,0,0,1,1.51-4,6.52,6.52,0,0,1,.43-.54,6.32,6.32,0,0,1,.78-.75,7.1,7.1,0,0,1,1.43-.89,11.83,11.83,0,0,1,3.09-.9c.74-.12,1.49-.21,2.24-.27s1.53-.1,2.29-.13c1.11,0,2.22-.06,3.33-.06h4Z" transform="translate(-10.5 -10.42)"/></svg>